<svg id="icon-transfers" xmlns="http://www.w3.org/2000/svg" width="153" height="117" viewBox="0 0 153 117">
  <rect id="Rectangle_1456" data-name="Rectangle 1456" width="153" height="117" opacity="0"/>
  <path id="Path_16523" data-name="Path 16523" d="M119.718,620.882h56.4a3.254,3.254,0,0,1,3.244,3.216c.023,2.915.094,11.787.061,17.954v.161l.14.078a3.1,3.1,0,0,1,1.727,2.542,2.836,2.836,0,0,1-2.826,2.932c-.16.011-4.9.324-7.838.467l-.2.01-.05.2a5.77,5.77,0,0,1-11.145.184l-.057-.2-.211,0c-1.523.028-4.625.048-7.719.048-6.062,0-15.65-.071-21.6-.139l-.21,0-.057.2a5.769,5.769,0,0,1-11.12.007l-.054-.191-.2-.009c-2.018-.089-4.434-.267-5.127-.318a3.179,3.179,0,0,1-3.128-3.137l-.084-6.792,5.978-14.57A4.712,4.712,0,0,1,119.718,620.882Zm19.751,1.858h-11.6v13.434l11.6-.72Zm13.462,0h-11.6v12.586l11.6-.719Zm12.892,0H154.791v11.738l11.033-.681Zm11.732,10.067c-.016-3.581-.041-6.836-.055-8.521l0-.173a1.389,1.389,0,0,0-1.385-1.373h-8.432v10.927l9.875-.6Zm-16.683,14.6h0a3.916,3.916,0,0,0,7.806-.108c.008-.116.014-.193.014-.271a3.917,3.917,0,0,0-7.72-.941,3.972,3.972,0,0,0-.119.941C160.854,647.159,160.861,647.284,160.873,647.408Zm-40.958-.04a3.862,3.862,0,0,0,.356,1.287,3.911,3.911,0,0,0,7.093-.013,3.862,3.862,0,0,0,.351-1.29c.011-.119.018-.238.018-.36a3.917,3.917,0,0,0-7.722-.933,3.976,3.976,0,0,0-.116.933A3.662,3.662,0,0,0,119.915,647.368Zm-8.308-2.483a1.36,1.36,0,0,0,1.409,1.287c1.837.138,3.494.244,4.792.3l.252.012.032-.249a5.771,5.771,0,0,1,11.445,0l.031.234.237,0c5.853.067,15.354.137,21.433.137,2.511,0,5.816-.014,7.539-.044l.238,0,.028-.236a5.771,5.771,0,0,1,11.431-.2l.038.244.246-.013c2.977-.15,7.551-.452,7.586-.454a1,1,0,0,0,1.083-1.04c-.015-.736-1.205-1.152-1.217-1.157l-.66-.206,0-.687c.016-2.239.017-4.935.01-7.6v-.291l-.29.018-65.738,4.2Zm14.4-8.584V622.74h-6.29a2.931,2.931,0,0,0-2.364,1.513l-5.332,12.994Zm-8.918-1.776v-2.844a.493.493,0,0,0-.493-.492H116.5a16.338,16.338,0,0,0-1.292,3.372.493.493,0,0,0,.491.456h.9A.493.493,0,0,0,117.09,634.525Z" transform="translate(-68.976 -576.545)"/>
</svg>
