<svg id="icon-waterpark" xmlns="http://www.w3.org/2000/svg" width="153" height="117" viewBox="0 0 153 117">
  <rect id="Rectangle_1488" data-name="Rectangle 1488" width="153" height="117" opacity="0"/>
  <path id="Path_16444" data-name="Path 16444" d="M952.665,294.447c-.043.71-.845,1.051-1.15,1.122a7.925,7.925,0,0,1-5.813-.983c-.208-.113-.223-.124-.508.023a9.345,9.345,0,0,1-9.251-.083.746.746,0,0,0-.128-.059s-.04.018-.106.054a9.372,9.372,0,0,1-9.391.019,1.081,1.081,0,0,0-.157-.074c-.005.005-.034.017-.082.043a9.455,9.455,0,0,1-9.462.022.339.339,0,0,0-.053-.022c-2.105,1.423-4.382,1.371-6.539,1.1a.8.8,0,0,1,.2-1.585c2.19.278,3.977.225,5.59-.939a1.6,1.6,0,0,1,1.547.037,7.846,7.846,0,0,0,7.948-.012,1.658,1.658,0,0,1,1.76.024,7.762,7.762,0,0,0,7.875-.014,1.665,1.665,0,0,1,1.76,0,7.823,7.823,0,0,0,7.751.069,1.918,1.918,0,0,1,2.016,0,6.391,6.391,0,0,0,4.677.825.105.105,0,0,0,.024-.012.836.836,0,0,1,.741-.4A.8.8,0,0,1,952.665,294.447Zm-41.949-6.166a6.6,6.6,0,0,0,1.471.145,6.908,6.908,0,0,0,2.144-.294.8.8,0,1,0-.545-1.5,6.366,6.366,0,0,1-2.7.1.8.8,0,1,0-.373,1.553Zm39.9-1.59-.023.012a6.4,6.4,0,0,1-4.677-.825,1.915,1.915,0,0,0-2.018,0,7.745,7.745,0,0,1-6.773.4.8.8,0,0,0-.6,1.479,9.349,9.349,0,0,0,3.558.723,9.806,9.806,0,0,0,4.557-1.181c.284-.148.3-.138.508-.023a7.93,7.93,0,0,0,5.814.982c.305-.071,1.105-.413,1.148-1.121a.8.8,0,0,0-.749-.846A.837.837,0,0,0,950.62,286.691Zm-37.776-6.222-.045-.6.579-.172c.131-.039,11-3.32,17.287-8.83-7.1.433-11.466-.526-12.987-2.852a3.7,3.7,0,0,1-.17-3.627c1.129-2.528,4.349-4.221,8.589-4.481,3.514-.213,7.751.707,9.286,3.251.6,1,1.03,2.668-.357,4.951-4.435,7.305-17.556,11.858-20.6,12.834a10.028,10.028,0,0,0,3.367,6.1,7.714,7.714,0,0,0,3.694,1.49c.77-.014,7.963-.33,8.665-7.047l.057-.536.526-.118a17.541,17.541,0,0,0,12.561-12.678,8.659,8.659,0,0,0-3.928-6.548,20.407,20.407,0,0,0-18.413-2.256c-3.225,1.3-5.382,3.439-5.915,5.863a5.951,5.951,0,0,0,1,4.877c1.441,1.956,4.144,3.195,7.612,3.491a.75.75,0,0,1-.127,1.494c-5.005-.426-7.49-2.462-8.693-4.1a7.432,7.432,0,0,1-1.253-6.089c.642-2.916,3.127-5.442,6.82-6.932,6.128-2.472,13.9-1.531,19.8,2.4a10.064,10.064,0,0,1,4.488,6.716c.917-.331,5.57-2.325,7.36-9.212a.75.75,0,0,1,1.476.176,17.409,17.409,0,0,1-9.094,14.644c-1.749,7.2-9.05,15.462-18.645,17.2a15.905,15.905,0,0,1-2.826.269,9.691,9.691,0,0,1-6.094-1.924C913.257,285.432,912.859,280.67,912.844,280.469Zm32.015-11.9a13.339,13.339,0,0,1-.076,2.127,16.18,16.18,0,0,0,5.29-5.737,11.958,11.958,0,0,1-5.121,3.6A.73.73,0,0,1,944.859,268.571Zm-16.393,19.043a23.543,23.543,0,0,0,14.048-13.76,20.07,20.07,0,0,1-10.94,8.3A8.286,8.286,0,0,1,928.466,287.614Zm3.522-18.349a.78.78,0,0,1,.278.029,13.307,13.307,0,0,0,1.479-1.966c.8-1.318.919-2.462.354-3.4-.94-1.557-3.719-2.558-6.944-2.558-.318,0-.64.009-.967.029-2.834.174-6.251,1.223-7.335,3.646a2.2,2.2,0,0,0,.09,2.16C919.685,268.317,922.364,270.063,931.988,269.265Z" transform="translate(-854.923 -217.531)"/>
</svg>
