<svg id="icon-wifi" xmlns="http://www.w3.org/2000/svg" width="153" height="117" viewBox="0 0 153 117">
  <rect id="Rectangle_1456" data-name="Rectangle 1456" width="153" height="117" opacity="0"/>
  <path id="Path_16449" data-name="Path 16449" d="M1120.488,372.171a1.2,1.2,0,0,1-2.094.746,31,31,0,0,0-45.519-.247,1.2,1.2,0,0,1-2.086-.768,1.189,1.189,0,0,1,.32-.87,33.411,33.411,0,0,1,49.068.266A1.184,1.184,0,0,1,1120.488,372.171Zm-7.878,8.668a1.19,1.19,0,0,0,.735-.254,1.217,1.217,0,0,0,.46-.825,1.185,1.185,0,0,0-.266-.889,23.43,23.43,0,0,0-35.9-.162,1.182,1.182,0,0,0-.274.887,1.22,1.22,0,0,0,.453.829,1.2,1.2,0,0,0,1.671-.174,21.022,21.022,0,0,1,32.188.146A1.213,1.213,0,0,0,1112.61,380.839Zm-17.09-.62a13.589,13.589,0,0,0-11.431,6.21,1.206,1.206,0,0,0,.412,1.708,1.193,1.193,0,0,0,1.6-.378,11.219,11.219,0,0,1,18.995.235,1.18,1.18,0,0,0,1.012.563,1.208,1.208,0,0,0,1.028-1.843A13.536,13.536,0,0,0,1095.52,380.219ZM1099,393.843a3.479,3.479,0,1,1-3.479-3.478A3.484,3.484,0,0,1,1099,393.843Zm-2.177,0a1.3,1.3,0,1,0-1.3,1.3A1.3,1.3,0,0,0,1096.822,393.843Z" transform="translate(-1018.646 -328.769)"/>
</svg>
